<svg id="Capa_1" data-name="Capa 1" xmlns="http://www.w3.org/2000/svg" viewBox="0 0 1347.09 385.05"><defs><style>.cls-1{fill:#1d1d1b;}</style></defs><g id="hand"><polygon class="cls-1" points="130.56 385.05 229.02 244.88 270.6 248 243.71 374.57 130.56 385.05"/><polygon class="cls-1" points="107.31 375.93 217.9 248.14 67.15 306.75 107.31 375.93"/><polygon class="cls-1" points="80.59 291.45 48.52 241.42 74.84 216.53 107.31 275.01 80.59 291.45"/><polygon class="cls-1" points="42.89 232.07 71.06 206.06 32.6 144.77 0 157.4 42.89 232.07"/><polygon class="cls-1" points="116.67 267.82 83.43 157.48 122.48 144.31 151.89 253.78 116.67 267.82"/><polygon class="cls-1" points="78.35 146.37 64.94 92.11 102.78 78.73 121.45 133.83 78.35 146.37"/><polygon class="cls-1" points="165.34 247.16 163.38 197.96 204.18 197.96 202.65 242.73 165.34 247.16"/><path class="cls-1" d="M163.57,186.13h40.34L215.6,46s-7.35-48.19-8.3-46-43.73,27.13-43.73,27.13Z" transform="translate(0 0.04)"/><polygon class="cls-1" points="229.02 234.5 246.17 156.54 290.19 137.78 273.14 238.2 229.02 234.5"/><polygon class="cls-1" points="248.81 137.78 292.82 120.52 296.2 83.4 267.19 46.25 248.81 137.78"/><polygon class="cls-1" points="257.32 353.81 279.46 258.34 310.8 211.15 348.15 204.92 309.55 320.15 257.32 353.81"/></g><path class="cls-1" d="M436.65,148.94v87.23H419.28V148.94ZM442,183.81h23V201.2H442Zm45.71-34.87v87.23H470.34V148.94Z" transform="translate(0 0.04)"/><path class="cls-1" d="M508.12,236.17l30.78-60,9.73,19.22L527.7,236.17Zm37.43-14.69,8.91-17.3h9.12l-19.62-38L553.83,147l45.71,89.17H579.89l-7.51-14.69Z" transform="translate(0 0.04)"/><path class="cls-1" d="M620.63,171.79V147l48.2,48.83V148.94h17.44v89.17ZM638,236.22H620.63v-51L638,202.86Z" transform="translate(0 0.04)"/><path class="cls-1" d="M733.45,148.94v87.23H716.07V148.94Zm9.34,87.23V218.78H751a26,26,0,0,0,10.27-2,25.49,25.49,0,0,0,8.29-5.61,25.75,25.75,0,0,0,5.47-8.23,25.08,25.08,0,0,0,1.92-9.78,27.44,27.44,0,0,0-3.38-13.47A25.32,25.32,0,0,0,751,166.32h-8.17V148.93H751a42.09,42.09,0,0,1,21.71,5.93A43.23,43.23,0,0,1,788.48,171a44.08,44.08,0,0,1,5.79,22.23,41.64,41.64,0,0,1-5.82,21.47,43.33,43.33,0,0,1-15.8,15.73A42.24,42.24,0,0,1,751,236.2Z" transform="translate(0 0.04)"/><path class="cls-1" d="M887.1,148.94v87.23H869.71V148.94Zm9.33,87.23V218.78h8.18a26,26,0,0,0,10.26-2,25.77,25.77,0,0,0,13.77-13.84,25.28,25.28,0,0,0,2-9.78,27.66,27.66,0,0,0-3.38-13.47,25.33,25.33,0,0,0-22.57-13.37h-8.18V148.93h8.18a42.1,42.1,0,0,1,21.65,5.93,43.13,43.13,0,0,1,15.8,16.1,44,44,0,0,1,5.81,22.23,41.64,41.64,0,0,1-5.82,21.47,43.33,43.33,0,0,1-15.8,15.73,42.33,42.33,0,0,1-21.68,5.81Z" transform="translate(0 0.04)"/><path class="cls-1" d="M992.37,148.94v87.23H975V148.94Zm45.29,0v17.39h-36V148.94Zm0,34.89V201.2h-36V183.83Zm0,35v17.36h-36V218.81Z" transform="translate(0 0.04)"/><path class="cls-1" d="M1094.29,184.56a28.33,28.33,0,0,1,9.64,5.75,27.74,27.74,0,0,1,5.19,34,27.47,27.47,0,0,1-10,10,27.87,27.87,0,0,1-37.86-10,26.56,26.56,0,0,1-3.76-13.73h17.61a9.65,9.65,0,0,0,3,7.13,9.84,9.84,0,0,0,7.19,2.94,10,10,0,0,0,10.09-10v-.11q0-7.14-8.14-10.3Zm-15.56,11.69,7.1-15.57a15.49,15.49,0,0,0-1.45-.63l-2.08-.86a7.84,7.84,0,0,1-4.75-7.17,7.73,7.73,0,1,1,15.46,0h17.4a24.48,24.48,0,0,0-2-9.73,25.07,25.07,0,0,0-44.88-2.87,24.37,24.37,0,0,0-3.39,12.56,23.51,23.51,0,0,0,2.94,12.06,25,25,0,0,0,7.18,8,28.92,28.92,0,0,0,8.42,4.12Z" transform="translate(0 0.04)"/><path class="cls-1" d="M1150.1,148.94v87.23h-17.4V148.94Z" transform="translate(0 0.04)"/><path class="cls-1" d="M1248.91,220.73a44.59,44.59,0,0,1-9.89,9.16,47.82,47.82,0,0,1-12.43,6.08,44.38,44.38,0,0,1-13.72,2.17,46.18,46.18,0,0,1-23.09-5.89,42.51,42.51,0,0,1-16.4-16.32,48.87,48.87,0,0,1-.12-46.59,42.42,42.42,0,0,1,16.3-16.41,46.46,46.46,0,0,1,23.36-5.93,47.07,47.07,0,0,1,12.16,1.57,45.32,45.32,0,0,1,11.12,4.57,41.63,41.63,0,0,1,9.17,7.17l-12.86,12a26.68,26.68,0,0,0-8.78-5.86,28.12,28.12,0,0,0-10.76-2.08,29.34,29.34,0,0,0-13.37,3.24,26.13,26.13,0,0,0-10.44,9.61,27.9,27.9,0,0,0-4,15.26,29.41,29.41,0,0,0,3.77,15.15,25,25,0,0,0,10.13,9.72,29.56,29.56,0,0,0,13.89,3.31,28.24,28.24,0,0,0,12.78-3,27.08,27.08,0,0,0,10-8.51h19.45A36.9,36.9,0,0,1,1248.91,220.73Zm7.82-38.21a23.7,23.7,0,0,1,1.43,8.7,32.1,32.1,0,0,1-.5,5.27,11.42,11.42,0,0,1-.93,3.43h-40.32v-17.4Z" transform="translate(0 0.04)"/><path class="cls-1" d="M1281.52,171.79V147l48.19,48.83V148.94h17.38v89.17Zm17.37,64.43h-17.37v-51l17.37,17.6Z" transform="translate(0 0.04)"/></svg>