<svg id="Capa_1" data-name="Capa 1" xmlns="http://www.w3.org/2000/svg" viewBox="0 0 1182.5 385.01"><defs><style>.cls-1{fill:#1d1d1b;}</style></defs><g id="hand"><polygon class="cls-1" points="130.56 385.01 229.02 244.84 270.6 247.96 243.71 374.53 130.56 385.01"/><polygon class="cls-1" points="107.31 375.89 217.9 248.1 67.15 306.71 107.31 375.89"/><polygon class="cls-1" points="80.59 291.41 48.52 241.38 74.84 216.49 107.31 274.97 80.59 291.41"/><polygon class="cls-1" points="42.89 232.03 71.06 206.02 32.6 144.73 0 157.36 42.89 232.03"/><polygon class="cls-1" points="116.67 267.78 83.43 157.44 122.48 144.27 151.89 253.74 116.67 267.78"/><polygon class="cls-1" points="78.35 146.33 64.94 92.07 102.78 78.69 121.45 133.79 78.35 146.33"/><polygon class="cls-1" points="165.34 247.12 163.38 197.92 204.18 197.92 202.65 242.69 165.34 247.12"/><path class="cls-1" d="M224.66,274.59H265l11.69-140.1s-7.35-48.19-8.3-46-43.73,27.13-43.73,27.13Z" transform="translate(-61.09 -88.46)"/><polygon class="cls-1" points="229.02 234.46 246.17 156.5 290.19 137.74 273.14 238.16 229.02 234.46"/><polygon class="cls-1" points="248.81 137.74 292.82 120.48 296.2 83.36 267.19 46.21 248.81 137.74"/><polygon class="cls-1" points="257.32 353.77 279.46 258.3 310.8 211.11 348.15 204.88 309.55 320.11 257.32 353.77"/></g><path class="cls-1" d="M494.66,245.13v71.75H480.37V245.13Zm4.42,28.68H518v14.31H499.08Zm37.6-28.68v71.75H522.37V245.13Z" transform="translate(-61.09 -88.46)"/><path class="cls-1" d="M553.45,316.88l25.32-49.34,8,15.81-17.21,33.53Zm30.79-12.08,7.33-14.23h7.5l-16.14-31.24,8.12-15.8,37.6,73.35H612.49l-6.18-12.08Z" transform="translate(-61.09 -88.46)"/><path class="cls-1" d="M646,263.92V243.53l39.65,40.17V245.13H700v73.35Zm14.29,53H646V275l14.29,14.48Z" transform="translate(-61.09 -88.46)"/><path class="cls-1" d="M738.81,245.13v71.75h-14.3V245.13Zm7.68,71.75v-14.3h6.72a21.47,21.47,0,0,0,8.45-1.65,21,21,0,0,0,6.82-4.61,21.32,21.32,0,0,0,4.5-6.77,20.67,20.67,0,0,0,1.58-8.05,22.67,22.67,0,0,0-2.78-11.08,20.84,20.84,0,0,0-18.57-11h-6.72v-14.3h6.72A34.56,34.56,0,0,1,771.07,250a35.48,35.48,0,0,1,13,13.24,36.31,36.31,0,0,1,4.77,18.29,34.3,34.3,0,0,1-4.79,17.66,35.67,35.67,0,0,1-13,12.94,34.81,34.81,0,0,1-17.83,4.78Z" transform="translate(-61.09 -88.46)"/><path class="cls-1" d="M865.2,245.13v71.75H850.89V245.13Zm7.67,71.75v-14.3h6.73a21.42,21.42,0,0,0,8.44-1.65,20.92,20.92,0,0,0,6.82-4.61,21.18,21.18,0,0,0,4.51-6.77A20.86,20.86,0,0,0,901,281.5a22.78,22.78,0,0,0-2.78-11.08,20.84,20.84,0,0,0-18.57-11h-6.73v-14.3h6.73A34.59,34.59,0,0,1,897.46,250a35.45,35.45,0,0,1,13,13.24,36.22,36.22,0,0,1,4.78,18.29,34.3,34.3,0,0,1-4.79,17.66,35.67,35.67,0,0,1-13,12.94,34.84,34.84,0,0,1-17.83,4.78Z" transform="translate(-61.09 -88.46)"/><path class="cls-1" d="M951.79,245.13v71.75H937.48V245.13Zm37.26,0v14.3H959.46v-14.3Zm0,28.7v14.29H959.46V273.83Zm0,28.77v14.28H959.46V302.6Z" transform="translate(-61.09 -88.46)"/><path class="cls-1" d="M1035.63,274.43a23.06,23.06,0,0,1,7.93,4.73,22.19,22.19,0,0,1,5.36,7.48,22.43,22.43,0,0,1,1.91,9.15,22.09,22.09,0,0,1-3,11.36,22.55,22.55,0,0,1-8.21,8.22,22.89,22.89,0,0,1-22.78,0,22.89,22.89,0,0,1-8.36-8.25,21.75,21.75,0,0,1-3.09-11.3h14.48a7.94,7.94,0,0,0,2.46,5.87,8.13,8.13,0,0,0,5.92,2.42,8.25,8.25,0,0,0,8.3-8.29q0-5.87-6.7-8.47Zm-12.8,9.61,5.84-12.8a11,11,0,0,0-1.19-.52l-1.71-.71a6.45,6.45,0,0,1-3.91-5.9,6.36,6.36,0,1,1,12.72,0h14.31a20.12,20.12,0,0,0-1.6-8,20.72,20.72,0,0,0-11.09-11.09,20.54,20.54,0,0,0-18.29,1.17,20.78,20.78,0,0,0-7.54,7.56,20.1,20.1,0,0,0-2.79,10.33A19.36,19.36,0,0,0,1010,274a20.47,20.47,0,0,0,5.91,6.61A23.59,23.59,0,0,0,1022.83,284Z" transform="translate(-61.09 -88.46)"/><path class="cls-1" d="M1081.54,245.13v71.75h-14.31V245.13Z" transform="translate(-61.09 -88.46)"/><path class="cls-1" d="M1162.82,304.18a36.73,36.73,0,0,1-8.13,7.54,39.3,39.3,0,0,1-10.23,5,36.62,36.62,0,0,1-11.28,1.78,38,38,0,0,1-19-4.84,35.09,35.09,0,0,1-13.49-13.43,40.2,40.2,0,0,1-.1-38.32A34.9,34.9,0,0,1,1114,248.41a38.2,38.2,0,0,1,19.22-4.88,39,39,0,0,1,10,1.29,37.25,37.25,0,0,1,9.15,3.76,34.41,34.41,0,0,1,7.54,5.9l-10.58,9.89a21.73,21.73,0,0,0-7.22-4.82,22.91,22.91,0,0,0-8.85-1.71,24.09,24.09,0,0,0-11,2.66,21.51,21.51,0,0,0-8.59,7.91,23,23,0,0,0-3.32,12.55,24.23,24.23,0,0,0,3.1,12.46,20.61,20.61,0,0,0,8.33,8,24.4,24.4,0,0,0,11.43,2.72,23.23,23.23,0,0,0,10.51-2.46,22.18,22.18,0,0,0,8.21-7h16A30.23,30.23,0,0,1,1162.82,304.18Zm6.44-31.43a19.38,19.38,0,0,1,1.17,7.16,25.7,25.7,0,0,1-.41,4.33,9.42,9.42,0,0,1-.76,2.82h-33.17V272.75Z" transform="translate(-61.09 -88.46)"/><path class="cls-1" d="M1189.65,263.92V243.53l39.64,40.17V245.13h14.3v73.35Zm14.29,53h-14.29V275l14.29,14.48Z" transform="translate(-61.09 -88.46)"/></svg>