<svg id="Capa_1" data-name="Capa 1" xmlns="http://www.w3.org/2000/svg" viewBox="0 0 1056.02 1080"><g id="hand"><polygon points="431.48 738.11 596.83 502.7 666.66 507.94 621.5 720.51 431.48 738.11"/><polygon points="392.43 722.79 578.16 508.18 324.99 606.61 392.43 722.79"/><polygon points="347.56 580.91 293.7 496.89 337.9 455.09 392.43 553.3 347.56 580.91"/><polygon points="284.24 481.19 331.55 437.51 266.96 334.58 212.21 355.79 284.24 481.19"/><polygon points="408.15 541.23 352.33 355.92 417.91 333.8 467.3 517.65 408.15 541.23"/><polygon points="343.79 337.26 321.27 246.14 384.82 223.67 416.18 316.2 343.79 337.26"/><polygon points="489.89 506.53 486.6 423.9 555.12 423.9 552.55 499.09 489.89 506.53"/><path d="M510.9,404.1h67.74l19.64-235.33s-12.35-80.93-13.94-77.26-73.44,45.57-73.44,45.57Z" transform="translate(-23.98)"/><polygon points="596.83 485.27 625.63 354.34 699.56 322.84 670.93 491.49 596.83 485.27"/><polygon points="630.07 322.84 703.98 293.85 709.66 231.51 660.94 169.12 630.07 322.84"/><polygon points="644.36 685.64 681.54 525.31 734.18 446.06 796.9 435.59 732.08 629.11 644.36 685.64"/></g><path d="M188.75,859.51v66.37H175.53V859.51ZM192.82,886h17.5v13.23h-17.5Zm34.78-26.53v66.37H214.39V859.51Z" transform="translate(-23.98)"/><path d="M243.13,925.88l23.43-45.65,7.4,14.62-15.93,31Zm28.49-11.17,6.78-13.17h6.94l-14.93-28.91,7.51-14.6,34.78,67.85H297.75L292,914.71Z" transform="translate(-23.98)"/><path d="M328.75,876.89V858l36.68,37.16V859.51H378.7v67.85Zm13.22,49H328.75V887.11L342,900.54Z" transform="translate(-23.98)"/><path d="M414.6,859.51v66.37H401.37V859.51Zm7.11,66.37V912.65H428a19.81,19.81,0,0,0,7.82-1.52,19.36,19.36,0,0,0,6.31-4.27,19.64,19.64,0,0,0,4.16-6.26,19,19,0,0,0,1.46-7.44,20.8,20.8,0,0,0-2.57-10.25A19.27,19.27,0,0,0,428,872.73h-6.21V859.5H428A32.08,32.08,0,0,1,444.47,864a32.89,32.89,0,0,1,12,12.28,33.56,33.56,0,0,1,4.41,16.92,31.73,31.73,0,0,1-4.43,16.34,33,33,0,0,1-12,12A32.22,32.22,0,0,1,428,925.91Z" transform="translate(-23.98)"/><path d="M531.52,859.51v66.37H518.29V859.51Zm7.1,66.37V912.65h6.22a19.52,19.52,0,0,0,18.29-12,19.44,19.44,0,0,0,1.52-7.44,21.08,21.08,0,0,0-2.57-10.25,19.28,19.28,0,0,0-17.18-10.18h-6.22V859.5h6.22A32,32,0,0,1,561.38,864a32.86,32.86,0,0,1,12,12.25,33.47,33.47,0,0,1,4.42,16.92,31.76,31.76,0,0,1-4.43,16.34,33,33,0,0,1-12,12,32.3,32.3,0,0,1-16.5,4.42Z" transform="translate(-23.98)"/><path d="M611.62,859.51v66.37H598.4V859.51Zm34.47,0v13.23h-27.4V859.51Zm0,26.55v13.21h-27.4V886.06Zm0,26.63V925.9h-27.4V912.67Z" transform="translate(-23.98)"/><path d="M689.18,886.61a21.56,21.56,0,0,1,7.33,4.38,21.1,21.1,0,0,1,4,25.87,20.88,20.88,0,0,1-7.61,7.61A21.22,21.22,0,0,1,664,916.86a20.33,20.33,0,0,1-2.86-10.45h13.4a7.33,7.33,0,0,0,2.29,5.43,7.47,7.47,0,0,0,5.47,2.23,7.59,7.59,0,0,0,7.67-7.54v-.15q0-5.43-6.19-7.84Zm-11.84,8.9,5.4-11.85a11.82,11.82,0,0,0-1.1-.48l-1.59-.66a6,6,0,0,1-3.61-5.45,5.88,5.88,0,1,1,11.76,0v0h13.24a18.51,18.51,0,0,0-1.52-7.41,19.08,19.08,0,0,0-34.15-2.18,18.57,18.57,0,0,0-2.58,9.56,17.87,17.87,0,0,0,2.24,9.18,19,19,0,0,0,5.46,6.08,22,22,0,0,0,6.41,3.14Z" transform="translate(-23.98)"/><path d="M731.65,859.51v66.37H718.41V859.51Z" transform="translate(-23.98)"/><path d="M806.84,914.13a33.69,33.69,0,0,1-7.53,7,36,36,0,0,1-9.46,4.63,33.62,33.62,0,0,1-10.44,1.65,35.06,35.06,0,0,1-17.57-4.48,32.31,32.31,0,0,1-12.48-12.42,37.19,37.19,0,0,1-.09-35.45,32.35,32.35,0,0,1,12.4-12.49,37,37,0,0,1,27-3.32,34.52,34.52,0,0,1,8.46,3.48,31.84,31.84,0,0,1,7,5.46l-9.78,9.13a20.28,20.28,0,0,0-6.69-4.46,21.23,21.23,0,0,0-8.18-1.58,22.38,22.38,0,0,0-10.18,2.46,19.85,19.85,0,0,0-7.94,7.32,21.14,21.14,0,0,0-3,11.61,22.46,22.46,0,0,0,2.86,11.53,19,19,0,0,0,7.71,7.39,22.5,22.5,0,0,0,10.57,2.52,21.6,21.6,0,0,0,9.73-2.28,20.63,20.63,0,0,0,7.61-6.48h14.8A28.12,28.12,0,0,1,806.84,914.13Zm5.95-29.07a18,18,0,0,1,1.08,6.62,23.47,23.47,0,0,1-.38,4,8.49,8.49,0,0,1-.7,2.61H782.1V885.06Z" transform="translate(-23.98)"/><path d="M831.65,876.89V858l36.67,37.16V859.51h13.22v67.85Zm13.22,49H831.65V887.11l13.22,13.4Z" transform="translate(-23.98)"/><path d="M182.14,1080S25,998.88,24,998.88s500.92,67.5,500.92,67.5l-14-49.55,362.82,37.52L970,967.29l45.29,36.81-22.65-76.72,66.53,5.94L917.6,820.08l12.74-42.46-92.08-17L1045,671.45l-84.93-9.9,92-25.48L881.54,566.71l133.73-131.12L900.62,407.88l128.81-112.95H962.9l52.37-47.18-17-136.83,41,58.2L1080,0V1080Z" transform="translate(-23.98)"/></svg>