<svg id="Capa_1" data-name="Capa 1" xmlns="http://www.w3.org/2000/svg" viewBox="0 0 119.82 40.61"><defs><style>.cls-1{fill:#fff;}</style></defs><path class="cls-1" d="M73.54,42.33V43a4.88,4.88,0,0,0-2.46-.68,3.25,3.25,0,0,0-1.69.44,3,3,0,0,0-1.15,1.2,3.63,3.63,0,0,0,0,3.33,3,3,0,0,0,1.14,1.17,3.24,3.24,0,0,0,1.69.43,4.73,4.73,0,0,0,2.49-.71v.66a5.43,5.43,0,0,1-2.49.58,4,4,0,0,1-2-.51,3.51,3.51,0,0,1-1.34-1.39,3.89,3.89,0,0,1-.46-1.87,4,4,0,0,1,.49-2,3.78,3.78,0,0,1,1.37-1.38,4,4,0,0,1,2-.5A5.73,5.73,0,0,1,73.54,42.33Z" transform="translate(-13.09 -11.19)"/><path class="cls-1" d="M77.88,44.81l-.28.44a2.33,2.33,0,0,0-.5-.34.93.93,0,0,0-.41-.11,1.14,1.14,0,0,0-.78.4,3,3,0,0,0-.7,1.08v3h-.52V44.4h.52v1.23c.56-.88,1.1-1.33,1.63-1.33A1.57,1.57,0,0,1,77.88,44.81Z" transform="translate(-13.09 -11.19)"/><path class="cls-1" d="M80.47,49.39a2.41,2.41,0,0,1-1.22-.31,2.24,2.24,0,0,1-.85-.9,2.88,2.88,0,0,1-.3-1.34,3.1,3.1,0,0,1,.27-1.31,2.19,2.19,0,0,1,.77-.9,2,2,0,0,1,1.14-.33,1.84,1.84,0,0,1,1.47.63,2.82,2.82,0,0,1,.59,1.77h-3.7v0a.25.25,0,0,0,0,.1,2.37,2.37,0,0,0,.23,1,1.75,1.75,0,0,0,.66.74,1.86,1.86,0,0,0,1,.27,2.88,2.88,0,0,0,1.74-.59v.52a3,3,0,0,1-.88.43A3.1,3.1,0,0,1,80.47,49.39Zm-.2-4.63a1.5,1.5,0,0,0-1.08.44,1.9,1.9,0,0,0-.53,1.16h3.16a2.07,2.07,0,0,0-.49-1.18A1.4,1.4,0,0,0,80.27,44.76Z" transform="translate(-13.09 -11.19)"/><path class="cls-1" d="M86.35,45.81v2.94q0,.18.12.18a1.56,1.56,0,0,0,.64-.37V49a3,3,0,0,1-.5.33.9.9,0,0,1-.39.1c-.26,0-.39-.14-.39-.43v-.25a3.19,3.19,0,0,1-.76.53,1.91,1.91,0,0,1-.76.15,1.29,1.29,0,0,1-.93-.34,1.15,1.15,0,0,1-.36-.87,1.32,1.32,0,0,1,.7-1.15,5.65,5.65,0,0,1,2.11-.65v-.5a1.19,1.19,0,0,0-.24-.83,1.08,1.08,0,0,0-.81-.26,2.27,2.27,0,0,0-1.55.69v-.57a2.31,2.31,0,0,1,1.59-.61,1.54,1.54,0,0,1,1.15.39A1.49,1.49,0,0,1,86.35,45.81ZM84.5,49a1.51,1.51,0,0,0,.65-.15,2.92,2.92,0,0,0,.68-.51V46.71a4.1,4.1,0,0,0-1.67.47,1.06,1.06,0,0,0-.61.94.87.87,0,0,0,.26.64A1,1,0,0,0,84.5,49Z" transform="translate(-13.09 -11.19)"/><path class="cls-1" d="M88.22,43.25l.51-.31V44.4h1.46v.46H88.73v3a1.82,1.82,0,0,0,.15.85.61.61,0,0,0,.58.26,2.05,2.05,0,0,0,.94-.27v.49a1.92,1.92,0,0,1-.49.19,2.2,2.2,0,0,1-.5.06,1.09,1.09,0,0,1-.93-.36,2.13,2.13,0,0,1-.26-1.22v-3H87.16V44.4h1.06Z" transform="translate(-13.09 -11.19)"/><path class="cls-1" d="M91.24,43.42v-.94h.51v.94Zm.51,1v4.9h-.51V44.4Z" transform="translate(-13.09 -11.19)"/><path class="cls-1" d="M96.37,44.4h.56l-2.1,5h-.2l-2.13-5h.57l1.66,4Z" transform="translate(-13.09 -11.19)"/><path class="cls-1" d="M99.66,49.39a2.41,2.41,0,0,1-1.22-.31,2.24,2.24,0,0,1-.85-.9,2.88,2.88,0,0,1-.3-1.34,3.1,3.1,0,0,1,.27-1.31,2.19,2.19,0,0,1,.77-.9,2,2,0,0,1,1.14-.33,1.84,1.84,0,0,1,1.47.63,2.82,2.82,0,0,1,.59,1.77h-3.7v0a.25.25,0,0,0,0,.1,2.37,2.37,0,0,0,.23,1,1.75,1.75,0,0,0,.66.74,1.86,1.86,0,0,0,1,.27,2.88,2.88,0,0,0,1.74-.59v.52a3.05,3.05,0,0,1-1.8.56Zm-.2-4.63a1.5,1.5,0,0,0-1.08.44,1.9,1.9,0,0,0-.53,1.16H101a2.07,2.07,0,0,0-.49-1.18A1.4,1.4,0,0,0,99.46,44.76Z" transform="translate(-13.09 -11.19)"/><path class="cls-1" d="M112.41,45.5a4,4,0,0,1-.5,2,3.37,3.37,0,0,1-1.4,1.32,4.46,4.46,0,0,1-2.08.47h-2.66V41.86h2.65a4.49,4.49,0,0,1,2.08.46,3.39,3.39,0,0,1,1.41,1.29A3.6,3.6,0,0,1,112.41,45.5Zm-.59.1a3.36,3.36,0,0,0-.42-1.71,2.81,2.81,0,0,0-1.2-1.11,4.12,4.12,0,0,0-1.84-.39h-2v6.38h2.12a3.85,3.85,0,0,0,1.77-.39,2.9,2.9,0,0,0,1.18-1.12A3.23,3.23,0,0,0,111.82,45.6Z" transform="translate(-13.09 -11.19)"/><path class="cls-1" d="M115.73,49.39a2.41,2.41,0,0,1-1.22-.31,2.24,2.24,0,0,1-.85-.9,2.88,2.88,0,0,1-.3-1.34,3.1,3.1,0,0,1,.27-1.31,2.19,2.19,0,0,1,.77-.9,2,2,0,0,1,1.14-.33,1.84,1.84,0,0,1,1.47.63,2.82,2.82,0,0,1,.59,1.77h-3.7v0a.25.25,0,0,0,0,.1,2.37,2.37,0,0,0,.23,1,1.75,1.75,0,0,0,.66.74,1.86,1.86,0,0,0,1,.27,2.88,2.88,0,0,0,1.74-.59v.52a3.05,3.05,0,0,1-1.8.56Zm-.2-4.63a1.5,1.5,0,0,0-1.08.44,1.9,1.9,0,0,0-.53,1.16h3.15a1.94,1.94,0,0,0-.49-1.18A1.36,1.36,0,0,0,115.53,44.76Z" transform="translate(-13.09 -11.19)"/><path class="cls-1" d="M119.9,44.3a2.68,2.68,0,0,1,1.29.36v.54a3.18,3.18,0,0,0-.67-.33,1.88,1.88,0,0,0-.62-.11,1,1,0,0,0-.7.21.68.68,0,0,0-.25.56.73.73,0,0,0,.23.56,3.83,3.83,0,0,0,.92.53,3,3,0,0,1,1,.62,1.16,1.16,0,0,1,.31.83A1.25,1.25,0,0,1,121,49a1.58,1.58,0,0,1-1.13.39,2.84,2.84,0,0,1-.72-.09,3.17,3.17,0,0,1-.74-.31v-.57a3,3,0,0,0,.75.38,1.94,1.94,0,0,0,.68.13,1.13,1.13,0,0,0,.76-.23.75.75,0,0,0,.28-.6.76.76,0,0,0-.1-.41.92.92,0,0,0-.35-.32,6,6,0,0,0-.79-.41,2.86,2.86,0,0,1-.91-.6,1.17,1.17,0,0,1-.28-.8,1.14,1.14,0,0,1,.4-.91A1.61,1.61,0,0,1,119.9,44.3Z" transform="translate(-13.09 -11.19)"/><path class="cls-1" d="M122.52,43.42v-.94H123v.94Zm.51,1v4.9h-.51V44.4Z" transform="translate(-13.09 -11.19)"/><path class="cls-1" d="M127.72,46.11a1.6,1.6,0,0,1-.39,1.07,2,2,0,0,1-1.14.6,3.38,3.38,0,0,0-.88.26.43.43,0,0,0-.26.38.37.37,0,0,0,.24.39,3.49,3.49,0,0,0,.87.18l.6.09c.95.15,1.43.58,1.43,1.3a1.17,1.17,0,0,1-.6,1,2.81,2.81,0,0,1-1.57.38,2.92,2.92,0,0,1-1.59-.36,1.15,1.15,0,0,1-.55-1c0-.69.43-1.12,1.28-1.3-.41-.11-.61-.33-.61-.66s.3-.67.9-.81a1.66,1.66,0,0,1-.89-.59,1.61,1.61,0,0,1-.32-1,1.57,1.57,0,0,1,.53-1.23,2.07,2.07,0,0,1,1.43-.46h2v.41H127a1.22,1.22,0,0,1,.57.53A1.55,1.55,0,0,1,127.72,46.11ZM126,51.38a2.43,2.43,0,0,0,1.22-.26.8.8,0,0,0,.44-.72.78.78,0,0,0-.44-.71,2.52,2.52,0,0,0-1.27-.25,2.25,2.25,0,0,0-1.16.25.8.8,0,0,0-.42.73.78.78,0,0,0,.41.71A2.39,2.39,0,0,0,126,51.38Zm0-4.06a1.21,1.21,0,0,0,.89-.35,1.16,1.16,0,0,0,.37-.89,1.22,1.22,0,0,0-.35-.88,1.18,1.18,0,0,0-.88-.36,1.28,1.28,0,0,0-.92.35,1.2,1.2,0,0,0-.37.91,1.15,1.15,0,0,0,.36.88A1.25,1.25,0,0,0,126,47.32Z" transform="translate(-13.09 -11.19)"/><path class="cls-1" d="M132.91,46.3v3h-.51V46.35a1.83,1.83,0,0,0-.34-1.19,1.19,1.19,0,0,0-1-.41,1.62,1.62,0,0,0-.88.26,2.27,2.27,0,0,0-.7.74V49.3H129V44.4h.51v.84a2.22,2.22,0,0,1,.77-.69,2.09,2.09,0,0,1,.93-.25,1.54,1.54,0,0,1,1.28.54A2.29,2.29,0,0,1,132.91,46.3Z" transform="translate(-13.09 -11.19)"/><path class="cls-1" d="M81.51,11.19h6.38L79.06,21.83l10.5,12H82.44L73,22.86v11H67.24V11.19H73V21.62Z" transform="translate(-13.09 -11.19)"/><path class="cls-1" d="M106.75,27.23V28H97.26a3.53,3.53,0,0,0,1.32,2.33,4.15,4.15,0,0,0,2.64.87,11.15,11.15,0,0,0,5.2-1.41v2.87a11.75,11.75,0,0,1-6,1.48,8.45,8.45,0,0,1-3.92-.88,6.39,6.39,0,0,1-2.61-2.49A7.36,7.36,0,0,1,93,27.06a7.4,7.4,0,0,1,.88-3.64A6,6,0,0,1,96.38,21a8.24,8.24,0,0,1,3.89-.87,6.67,6.67,0,0,1,3.28.81,5.86,5.86,0,0,1,2.33,2.42A8.14,8.14,0,0,1,106.75,27.23Zm-6.67-4.36a2.75,2.75,0,0,0-2.07.84,3,3,0,0,0-.83,2.17h5.61a3.31,3.31,0,0,0-.74-2.2A2.49,2.49,0,0,0,100.08,22.87Z" transform="translate(-13.09 -11.19)"/><path class="cls-1" d="M127,11.19h5.92l-10,22.89h-3.35l-9.87-22.89h5.92l5.65,14Z" transform="translate(-13.09 -11.19)"/><polygon class="cls-1" points="20.27 0 0 24.91 0 0 20.27 0"/><polygon class="cls-1" points="40.61 0 40.61 40.61 29.34 40.61 5.92 21.56 23.46 0 40.61 0"/><polygon class="cls-1" points="25.42 40.61 0 40.61 0 28.83 4.36 23.48 25.42 40.61"/></svg>