<?xml version="1.0" encoding="utf-8"?>
<!-- Generator: Adobe Illustrator 26.0.1, SVG Export Plug-In . SVG Version: 6.00 Build 0)  -->
<svg version="1.1" id="Capa_1" xmlns="http://www.w3.org/2000/svg" xmlns:xlink="http://www.w3.org/1999/xlink" x="0px" y="0px"
	 viewBox="0 0 561 219" style="enable-background:new 0 0 561 219;" xml:space="preserve">
<style type="text/css">
	.st0{fill:#FAC77E;}
</style>
<g>
	<path class="st0" d="M290.8,68.5l24.6,0l-34,41l40.5,46.3l-27.5,0l-36.6-42.4v42.4h-22l0-87.4l22,0l0,40.2L290.8,68.5z"/>
	<path class="st0" d="M388.1,130.4v3l-36.6,0c0.6,3.7,2.3,6.7,5.1,9c2.8,2.3,6.2,3.4,10.2,3.4c6.4,0,13.1-1.8,20-5.5v11.1
		c-6.6,3.8-14.3,5.7-23.2,5.7c-5.7,0-10.7-1.1-15.1-3.4c-4.3-2.3-7.7-5.4-10.1-9.6c-2.4-4.1-3.5-8.9-3.5-14.4c0-5.3,1.1-10,3.4-14
		c2.3-4.1,5.5-7.2,9.8-9.4c4.3-2.2,9.3-3.3,15-3.3c4.7,0,8.9,1,12.6,3.1c3.8,2.1,6.8,5.2,9,9.3C387,119.5,388.1,124.5,388.1,130.4z
		 M362.4,113.6c-3.2,0-5.9,1.1-8,3.2s-3.2,5-3.2,8.4l21.7,0c-0.1-3.6-1-6.4-2.9-8.5C368.2,114.6,365.6,113.6,362.4,113.6z"/>
	<path class="st0" d="M466.2,68.5l22.8,0l-38.5,88.2l-12.9,0l-38-88.2l22.8,0l21.8,53.8L466.2,68.5z"/>
</g>
<g>
	<polygon class="st0" points="130.9,68.5 86.7,122.8 86.7,68.5 	"/>
	<polygon class="st0" points="175.2,68.5 175.2,157 150.6,157 99.6,115.5 137.8,68.5 	"/>
	<polygon class="st0" points="142.1,157 86.7,157 86.7,131.4 96.2,119.7 	"/>
</g>
</svg>
